<?xml version="1.0" encoding="UTF-8"?>
<svg id="Layer_1" data-name="Layer 1" xmlns="http://www.w3.org/2000/svg" viewBox="0 0 60 60">
  <defs>
    <style>
      .cls-1 {
        fill: #739ca9;
        stroke-width: 0px;
      }
    </style>
  </defs>
  <g id="GnrVUw.tif">
    <g>
      <path class="cls-1" d="M17.04,6.54c8.66,0,17.31,0,25.97,0,.18.1.34.27.53.29,2.45.35,4.47,1.47,6.28,3.16,1.9,1.77,2.79,4.04,3.64,6.37v27.24c-.08.07-.2.13-.22.21-1.18,5.82-6.68,9.82-12.73,9.65-7.12-.2-14.24-.04-21.36-.05-7.16-.01-12.39-5.21-12.52-12.44-.14-7.33-.11-14.67,0-22,.06-3.85,1.51-7.15,4.61-9.69,1.74-1.43,3.8-1.97,5.8-2.73ZM49.67,30.08c0-3.8.01-7.6,0-11.4,0-.67.06-1.34-.15-2.03-1.21-3.94-4.37-6.32-8.49-6.32-7.28,0-14.57,0-21.85,0-4.6,0-8.65,3.36-8.75,8.56-.14,7.39-.08,14.78-.02,22.16.04,4.49,3.74,8.5,7.93,8.54,7.86.07,15.73.12,23.59-.02,4.32-.08,7.82-4.13,7.76-7.94-.06-3.85-.01-7.7-.01-11.56Z"/>
      <path class="cls-1" d="M18.27,30.02c-.29-6.38,4.98-11.97,11.79-12.01,6.79-.05,11.61,5.24,12.01,11.17.48,7.18-5.28,12.71-11.68,12.81-6.57.1-12.34-5.09-12.11-11.97ZM38.27,30.12c.26-4.28-3.44-8.4-8.13-8.32-4.41.07-8.02,3.07-8.18,8.13-.14,4.41,3.78,8.31,8.22,8.29,4.34-.02,8.09-3.77,8.1-8.1Z"/>
      <path class="cls-1" d="M45.22,17.31c.02,1.41-1.23,2.74-2.6,2.78-1.38.04-2.72-1.25-2.76-2.66-.04-1.5,1.09-2.63,2.64-2.64,1.65-.01,2.7.96,2.72,2.52Z"/>
    </g>
  </g>
</svg>