<?xml version="1.0" encoding="UTF-8"?>
<svg id="Layer_1" data-name="Layer 1" xmlns="http://www.w3.org/2000/svg" viewBox="0 0 325.17 60">
  <defs>
    <style>
      .cls-1 {
        fill: #000;
        stroke-width: 0px;
      }
    </style>
  </defs>
  <path class="cls-1" d="M276.13,15.5c-.06,0-.13,0-.19,0-14.04,0-28.08,0-42.12,0-.2,0-.37.05-.54.16-4.27,2.89-8.55,5.78-12.82,8.66-.19.13-.27.26-.27.5,0,4.47,0,8.94,0,13.41,0,.08,0,.15,0,.23,0,.11.06.16.16.15.05,0,.11,0,.16,0,4.97.04,9.95-.09,14.92.07h30.97c.11,0,.22,0,.32,0,.11,0,.16.05.16.16,0,.14-.01.28,0,.42.04.26-.08.41-.29.55-2.07,1.39-4.14,2.79-6.21,4.2-.24.17-.48.24-.78.24-13.01,0-26.01,0-39.02,0-.41,0-.41-.07-.41.39,0,2.85,0,5.71,0,8.56,0,.12-.02.24.04.35h42.74c.07-.13.21-.18.32-.26,4.21-2.85,8.42-5.7,12.63-8.54.21-.14.29-.29.29-.55,0-4.8,0-9.61,0-14.41,0-.09,0-.17,0-.26,0-.11-.06-.15-.16-.15-.05,0-.11,0-.16,0-4.94-.04-9.88-.01-14.83-.05-10.28-.07-20.56-.02-30.84-.02h-.43c.12-.15.24-.21.34-.28,1.96-1.33,3.93-2.65,5.89-3.99.25-.17.5-.25.81-.25,13.03,0,26.06,0,39.08,0,.44,0,.4.04.4-.4,0-2.83,0-5.66,0-8.5,0-.08,0-.15,0-.23,0-.12-.05-.18-.17-.18ZM146.95,15.5c-9.93-.01-19.87.02-29.8-.02-3.99-.01-7.97,0-11.96,0-.24,0-.43.06-.62.2-4.24,3.06-8.47,6.11-12.72,9.16-.23.16-.31.33-.31.61,0,9.23,0,18.46,0,27.69,0,.13.01.26.02.39h42.54c.08-.07.16-.14.25-.2,4.25-3.06,8.49-6.12,12.74-9.17.21-.15.28-.3.28-.56,0-9.23,0-18.46,0-27.69,0-.44.05-.41-.42-.41ZM137.77,39.4c-2.14,1.53-4.27,3.06-6.4,4.61-.21.16-.42.21-.68.21-4.9,0-9.8,0-14.71,0h0c-4.91,0-9.83,0-14.74,0-.42,0-.4.06-.4-.4,0-4.54,0-9.09,0-13.63,0-.25.08-.41.28-.55,2.16-1.54,4.3-3.09,6.45-4.64.18-.13.35-.2.56-.18.01,0,.02,0,.03,0,9.81,0,19.63,0,29.44-.01.52,0,.44-.05.44.45,0,4.52,0,9.04,0,13.57,0,.27-.08.42-.3.58ZM84.6,7.18c0-.12-.05-.18-.17-.17-.06,0-.13,0-.19,0-13.92,0-27.84,0-41.76,0-.2,0-.37.05-.53.17-4.27,3.08-8.54,6.16-12.82,9.23-.2.15-.26.29-.26.53,0,8.88,0,17.77,0,26.65,0,.27.09.42.3.58,4.22,3.03,8.43,6.06,12.64,9.1.11.08.25.13.32.26h25.73c.12-.07.25-.05.38-.06.72-.05,1.43-.15,2.14-.3,2.77-.57,5.31-1.67,7.64-3.26,2.79-1.9,4.88-4.4,6.27-7.48.19-.43.18-.35-.21-.52-2.64-1.11-5.28-2.21-7.93-3.31-.1-.04-.2-.12-.33-.1-.11.13-.16.29-.23.43-1.34,2.77-3.53,4.47-6.51,5.18-.1.02-5.8.1-5.8.1,0,0-11.85,0-17.78,0-.22,0-.39-.05-.56-.18-2.15-1.56-4.31-3.12-6.48-4.66-.2-.15-.29-.29-.29-.55.01-3.11.01-6.22.01-9.34,0-2.61,0-5.21-.01-7.82,0-.23.07-.37.26-.5,2.16-1.55,4.32-3.1,6.48-4.66.2-.15.4-.21.65-.21,9.77,0,19.55,0,29.32,0,.47,0,.42-.06.42.41,0,2.58,0,5.17,0,7.75,0,.32,0,.32.32.32.03,0,.06,0,.1,0,2.83,0,5.67,0,8.5,0,.45,0,.4.03.4-.4,0-5.66,0-11.33,0-16.99,0-.08,0-.15,0-.23ZM212.26,41.09c0-.47.05-.42-.41-.42-5.14,0-10.28,0-15.42,0-.21,0-.4-.02-.6-.09-10.05-3.18-30.95-9.76-30.95-9.76,0,0-5.8,0-8.7,0-.32,0-.32,0-.32.32,0,.03,0,.06,0,.1,0,7.3,0,14.6,0,21.9,0,.13-.02.26.03.38h9.25c.05-.15.03-.3.03-.45,0-3.99,0-7.99,0-11.98,0-.13-.03-.26.04-.4.1.03.2.05.3.08,9.34,2.95,18.69,5.89,28.03,8.86.75.24,1.49.36,2.27.35,2.2-.03,4.4,0,6.59,0h.19c.34,0,.34-.03.34.33,0,.92,0,1.83,0,2.75,0,.16.01.32.02.48h9.31c0-.12-.01-.24-.01-.35,0-4.03,0-8.05,0-12.08ZM21.38,44.24h-4.91c-.41,0-.82,0-1.23,0-.4,0-.81,0-1.21,0-.01-.16.04-.25.08-.35,1.25-3.71,2.51-7.41,3.77-11.12.48-1.43,1.01-2.84,1.42-4.28.34-1.17.55-2.37.43-3.6-.14-1.3-.74-2.3-1.9-2.93-.29-.16-.6-.29-.91-.4-1.26-.44-2.58-.58-3.91-.63-1.17-.04-2.35-.01-3.52.11-1.56.16-3.08.48-4.57.98-.17.06-.26.14-.32.31-.88,2.54-1.77,5.08-2.66,7.61-.03.08-.09.15-.02.26.09-.02.18-.05.27-.08,1.08-.32,2.17-.55,3.3-.57.73-.02,1.47,0,2.16.27.66.26.95.71.97,1.42.02.75-.19,1.44-.44,2.14-1.83,5.25-3.69,10.49-5.48,15.75-.5,1.48-1.02,2.95-1.52,4.42h12.74c.12-.05.26-.03.38-.03,1.95,0,3.9-.02,5.85-.02.37,0,.31.06.45-.31,1.05-2.87,2.11-5.73,3.16-8.6.03-.09.08-.17.07-.32h-2.45ZM323.82,41.4s-.1-.04-.15-.06c-1.93-.84-3.87-1.69-5.8-2.53-.75-.33-1.5-.65-2.25-.98-.26-.11-.26-.11-.38.15-.08.16-.15.33-.23.5-1.22,2.5-3.14,4.19-5.82,5.01-1.31.4-2.65.58-4.02.46-1.54-.14-2.95-.67-4.24-1.53-1.62-1.07-2.93-2.43-3.74-4.22-.61-1.35-.85-2.77-.85-4.24,0-2.92,0-5.84,0-8.75,0-.51-.04-.43.43-.43,7.73,0,15.45,0,23.18,0,.09,0,.17,0,.26,0,.16.01.25-.04.23-.21,0-.06,0-.13,0-.19,0-2.79,0-5.58,0-8.37,0-.44.04-.4-.4-.4-3.88,0-7.76,0-11.64,0s-7.8,0-11.7,0q-.35,0-.35-.35c0-.08,0-.15,0-.23V7.01c0-.09,0-.17,0-.26.02-.17-.07-.22-.23-.22-.41,0-.82-.02-1.23-.05-.18-.01-.33.04-.48.14-2.43,1.6-4.86,3.19-7.29,4.78-.19.13-.27.26-.26.49.04,1.1.07,2.19.1,3.29q0,.32-.31.33c-.1,0-.19,0-.29,0-1.62.03-3.23.05-4.85.08-.42,0-.4-.06-.4.4,0,2.78,0,5.56,0,8.33,0,.52-.04.44.45.44,1.66,0,3.32,0,4.98,0,.29,0,.29,0,.29.28,0,.08,0,.15,0,.23,0,2.69,0,5.38,0,8.08,0,1.62.16,3.22.53,4.8.7,3,2.05,5.67,3.95,8.08,1.59,2.01,3.47,3.68,5.73,4.9,2.5,1.36,5.2,2.03,8.02,2.25,1.87.14,3.73.03,5.55-.45,6.15-1.62,10.66-5.21,13.27-11.07.02-.05.04-.1.06-.15.08-.22.07-.23-.12-.32ZM156.15,24.8c.06,0,.13,0,.19,0,2.72,0,5.43,0,8.15,0,.27,0,.53.04.79.12,10.19,3.22,20.37,6.44,30.56,9.65.18.06.35.08.54.08,5.16,0,10.32,0,15.48,0,.43,0,.39.04.39-.4,0-3.06,0-6.12,0-9.18s0-6.12,0-9.18c0-.4.07-.4-.4-.4-2.81,0-5.62,0-8.44,0-.55,0-.48-.06-.48.49,0,3.02,0,6.03,0,9.05,0,.32,0,.32-.32.32-.04,0-.09,0-.13,0-1.53,0-3.06,0-4.59,0-.24,0-.47-.04-.7-.11-10.17-3.21-20.33-6.42-30.5-9.63-.26-.08-.52-.12-.79-.12-.45,0-.91,0-1.36,0-2.78,0-5.56,0-8.34,0-.35,0-.36,0-.36.29,0,2.91,0,5.82,0,8.72,0,.28,0,.29.28.29ZM17.97,17.64c2.91,0,5.25-2.34,5.27-5.24.01-2.72-2.15-5.25-5.26-5.25-3.12,0-5.25,2.56-5.23,5.24.01,2.9,2.34,5.25,5.23,5.25Z"/>
</svg>