<?xml version="1.0" encoding="UTF-8"?>
<svg id="Layer_1" data-name="Layer 1" xmlns="http://www.w3.org/2000/svg" viewBox="0 0 325.17 60">
  <defs>
    <style>
      .cls-1 {
        fill: #fff;
        stroke-width: 0px;
      }
    </style>
  </defs>
  <path class="cls-1" d="M186.86,19.87s-.09,0-.13,0c-9.54,0-19.08,0-28.62,0-.14,0-.25.03-.37.11-2.9,1.96-5.81,3.93-8.71,5.89-.13.09-.18.18-.18.34,0,3.04,0,6.07,0,9.11,0,.05,0,.1,0,.15,0,.07.04.11.11.1.04,0,.07,0,.11,0,3.38.03,6.76-.06,10.14.05h21.04c.07,0,.15,0,.22,0,.07,0,.11.03.11.11,0,.1,0,.19,0,.29.02.18-.06.28-.2.37-1.41.95-2.82,1.9-4.22,2.85-.17.11-.33.16-.53.16-8.84,0-17.68,0-26.51,0-.28,0-.28-.05-.28.26,0,1.94,0,3.88,0,5.82,0,.08-.02.16.03.24h29.04c.04-.09.14-.12.22-.17,2.86-1.94,5.72-3.87,8.59-5.8.14-.1.2-.2.2-.37,0-3.26,0-6.53,0-9.79,0-.06,0-.12,0-.18,0-.07-.04-.1-.11-.1-.04,0-.07,0-.11,0-3.36-.03-6.72,0-10.07-.03-6.98-.05-13.97-.01-20.96-.01h-.29c.08-.1.16-.14.23-.19,1.33-.9,2.67-1.8,4-2.71.17-.12.34-.17.55-.17,8.85,0,17.7,0,26.56,0,.3,0,.27.02.27-.27,0-1.92,0-3.85,0-5.77,0-.05,0-.1,0-.15,0-.08-.03-.12-.12-.12ZM99.09,19.87c-6.75,0-13.5.01-20.25-.01-2.71,0-5.42,0-8.13,0-.16,0-.29.04-.42.14-2.88,2.08-5.76,4.15-8.64,6.22-.15.11-.21.22-.21.41,0,6.27,0,12.54,0,18.81,0,.09,0,.17.01.26h28.91c.06-.05.11-.09.17-.14,2.89-2.08,5.77-4.16,8.66-6.23.14-.1.19-.21.19-.38,0-6.27,0-12.54,0-18.81,0-.3.03-.28-.29-.28ZM92.85,36.11c-1.45,1.04-2.9,2.08-4.35,3.13-.15.11-.29.15-.46.15-3.33,0-6.66,0-9.99,0h0c-3.34,0-6.68,0-10.01,0-.29,0-.27.04-.27-.27,0-3.09,0-6.18,0-9.26,0-.17.05-.28.19-.38,1.46-1.05,2.92-2.1,4.38-3.15.12-.09.24-.14.38-.12,0,0,.01,0,.02,0,6.67,0,13.34,0,20.01,0,.35,0,.3-.03.3.31,0,3.07,0,6.15,0,9.22,0,.18-.06.29-.2.39ZM56.72,14.21c0-.08-.03-.12-.12-.12-.04,0-.09,0-.13,0-9.46,0-18.92,0-28.38,0-.14,0-.25.03-.36.12-2.9,2.09-5.8,4.19-8.71,6.27-.14.1-.18.2-.18.36,0,6.04,0,12.07,0,18.11,0,.18.06.29.21.39,2.86,2.06,5.73,4.12,8.59,6.18.08.05.17.09.21.18h17.49c.08-.05.17-.03.26-.04.49-.04.97-.1,1.45-.2,1.88-.39,3.61-1.14,5.19-2.21,1.9-1.29,3.31-2.99,4.26-5.08.13-.29.12-.24-.14-.35-1.79-.75-3.59-1.5-5.39-2.25-.07-.03-.14-.08-.22-.07-.07.09-.11.2-.16.29-.91,1.88-2.4,3.04-4.42,3.52-.07.02-3.94.07-3.94.07,0,0-8.05,0-12.08,0-.15,0-.26-.04-.38-.12-1.46-1.06-2.93-2.12-4.4-3.17-.14-.1-.2-.2-.2-.37,0-2.11,0-4.23,0-6.34,0-1.77,0-3.54,0-5.31,0-.16.05-.25.17-.34,1.47-1.05,2.94-2.11,4.4-3.17.14-.1.28-.14.44-.14,6.64,0,13.28,0,19.92,0,.32,0,.29-.04.29.28,0,1.76,0,3.51,0,5.27,0,.22,0,.22.22.22.02,0,.04,0,.07,0,1.93,0,3.85,0,5.78,0,.3,0,.27.02.27-.27,0-3.85,0-7.7,0-11.55,0-.05,0-.1,0-.15ZM143.47,37.26c0-.32.03-.29-.28-.29-3.49,0-6.98,0-10.48,0-.14,0-.27-.02-.41-.06-6.83-2.16-21.03-6.63-21.03-6.63,0,0-3.94,0-5.91,0-.22,0-.22,0-.22.22,0,.02,0,.04,0,.07,0,4.96,0,9.92,0,14.88,0,.09-.01.18.02.26h6.28c.04-.1.02-.2.02-.3,0-2.71,0-5.43,0-8.14,0-.09-.02-.17.03-.27.07.02.13.03.2.05,6.35,2,12.7,4.01,19.05,6.02.51.16,1.01.25,1.55.24,1.49-.02,2.99,0,4.48,0h.13c.23,0,.23-.02.23.22,0,.62,0,1.24,0,1.87,0,.11,0,.22.01.33h6.33c0-.08,0-.16,0-.24,0-2.74,0-5.47,0-8.21ZM13.77,39.4h-3.34c-.28,0-.56,0-.83,0-.27,0-.55,0-.82,0,0-.11.03-.17.05-.24.85-2.52,1.71-5.04,2.56-7.56.33-.97.68-1.93.97-2.91.23-.8.38-1.61.29-2.45-.09-.88-.5-1.56-1.29-1.99-.2-.11-.41-.2-.62-.28-.86-.3-1.75-.4-2.65-.43-.8-.03-1.59,0-2.39.08-1.06.11-2.09.33-3.1.66-.11.04-.18.1-.22.21-.6,1.73-1.2,3.45-1.81,5.17-.02.05-.06.1-.02.18.06-.02.12-.03.18-.05.73-.22,1.48-.37,2.24-.39.5-.01,1,0,1.47.19.45.18.65.48.66.96.01.51-.13.98-.3,1.45-1.24,3.57-2.51,7.13-3.73,10.7-.34,1-.69,2-1.03,3h8.65c.08-.03.17-.02.26-.02,1.32,0,2.65-.01,3.97-.02.25,0,.21.04.31-.21.72-1.95,1.43-3.89,2.15-5.84.02-.06.05-.12.05-.22h-1.66ZM219.17,37.42c-1.31-.57-2.63-1.15-3.94-1.72-.51-.22-1.02-.44-1.53-.66-.17-.07-.17-.07-.26.1-.05.11-.1.23-.16.34-.83,1.7-2.13,2.85-3.95,3.41-.89.27-1.8.4-2.73.31-1.05-.1-2.01-.46-2.88-1.04-1.1-.73-1.99-1.65-2.54-2.87-.42-.92-.57-1.88-.57-2.88,0-1.98,0-3.97,0-5.95,0-.35-.03-.29.29-.3,5.25,0,10.5,0,15.75,0,.06,0,.12,0,.18,0,.11,0,.17-.03.16-.15,0-.04,0-.09,0-.13,0-1.9,0-3.79,0-5.69,0-.3.03-.27-.27-.27-2.64,0-5.27,0-7.91,0s-5.3,0-7.95,0q-.24,0-.24-.24c0-.05,0-.1,0-.15v-5.44c0-.06,0-.12,0-.18.01-.12-.05-.15-.15-.15-.28,0-.56-.02-.83-.03-.13,0-.22.03-.33.09-1.65,1.09-3.3,2.17-4.96,3.25-.13.09-.18.18-.18.34.03.75.04,1.49.07,2.24q0,.21-.21.22c-.07,0-.13,0-.2,0-1.1.02-2.2.03-3.29.05-.29,0-.27-.04-.27.27,0,1.89,0,3.78,0,5.66,0,.35-.03.3.31.3,1.13,0,2.26,0,3.38,0,.19,0,.19,0,.2.19,0,.05,0,.1,0,.15,0,1.83,0,3.66,0,5.49,0,1.1.11,2.19.36,3.26.48,2.04,1.39,3.85,2.68,5.49,1.08,1.37,2.36,2.5,3.89,3.33,1.7.92,3.53,1.38,5.45,1.53,1.27.1,2.54.02,3.77-.3,4.18-1.1,7.24-3.54,9.02-7.52.01-.03.03-.07.04-.1.05-.15.05-.15-.08-.22-.03-.02-.07-.03-.1-.04ZM105.34,26.19s.09,0,.13,0c1.84,0,3.69,0,5.54,0,.19,0,.36.03.54.08,6.92,2.19,13.84,4.37,20.77,6.56.12.04.24.06.37.05,3.51,0,7.01,0,10.52,0,.29,0,.27.03.27-.27,0-2.08,0-4.16,0-6.23s0-4.16,0-6.23c0-.27.05-.27-.27-.27-1.91,0-3.82,0-5.73,0-.37,0-.32-.04-.32.33,0,2.05,0,4.1,0,6.15,0,.22,0,.22-.22.22-.03,0-.06,0-.09,0-1.04,0-2.08,0-3.12,0-.16,0-.32-.02-.47-.07-6.91-2.18-13.82-4.36-20.72-6.55-.18-.06-.35-.08-.54-.08-.31,0-.62,0-.92,0-1.89,0-3.78,0-5.67,0-.24,0-.24,0-.24.2,0,1.98,0,3.95,0,5.93,0,.19,0,.19.19.2ZM11.45,21.32c1.98,0,3.57-1.59,3.58-3.56,0-1.85-1.46-3.57-3.57-3.57-2.12,0-3.56,1.74-3.56,3.56,0,1.97,1.59,3.57,3.55,3.57ZM277.93,23.93c-1.26-.64-2.63-.86-3.95-1.3h-3.12c-.21.23-.51.2-.78.24-6.9,1.26-11.12,7.97-9.29,14.75,1.42,5.25,6.12,8.61,11.99,8.56,5.36-.04,10.08-3.75,11.27-8.85,1.29-5.53-1.19-10.9-6.13-13.41ZM272.41,41.39c-3.8,0-6.76-3.04-6.78-6.92-.02-3.84,2.98-6.95,6.75-6.99,3.71-.05,6.74,3.08,6.75,6.96.01,3.91-2.94,6.96-6.72,6.96ZM325.08,32.26c-.13-4.7-2.77-8.71-7.83-9.45-.11-.02-.2-.11-.3-.17h-2.88c-2.37.64-4.56,1.59-6.18,3.53-.24.28-.41.33-.64,0-1.5-2.12-3.75-2.95-6.14-3.53h-2.64c-1.87.54-3.65,1.28-5.24,2.94,0-.67-.04-.98,0-1.28.13-.91-.18-1.29-1.16-1.2-.95.09-1.92.04-2.88.01-.57-.02-.86.09-.86.77.02,7.04.02,14.07,0,21.11,0,.64.24.83.84.81,1.04-.03,2.08-.07,3.12.01.96.07,1.2-.29,1.19-1.21-.05-3.6-.05-7.2-.01-10.79.04-3.92,2.53-6.42,6.07-6.13,2.73.22,4.61,2.45,4.64,5.6.03,3.84.03,7.68,0,11.51,0,.79.23,1.06,1.01,1.02,1-.05,2-.07,3,0,.89.06,1.16-.22,1.15-1.13-.05-3.56-.01-7.12-.03-10.67,0-.73.07-1.44.24-2.14.66-2.73,2.83-4.34,5.63-4.2,2.5.12,4.33,1.88,4.73,4.58.09.59.12,1.19.12,1.79.01,3.6.02,7.2,0,10.79,0,.71.17,1.01.93.98,1.08-.06,2.16-.05,3.24,0,.74.04.94-.22.94-.96-.03-4.2.08-8.4-.04-12.59ZM231.22,40.02c-1.58-.01-3.18.16-4.75-.1v6c1.58-.26,3.17-.09,4.75-.1.73,0,1.07-.15,1.02-.99-.08-1.27-.08-2.55,0-3.82.05-.84-.29-.98-1.02-.99ZM246.17,27.66c2.92-.57,5.29.47,6.78,3.05.27.46.56.58,1.04.57,1.28-.02,2.56-.05,3.84,0,.88.04.89-.31.67-.99-.57-1.79-1.53-3.31-2.89-4.61-1.73-1.65-3.89-2.4-6.1-3.06h-3.36c-.19.28-.5.2-.76.25-6.48,1.22-10.63,7.32-9.39,13.79,1.24,6.49,7.58,10.72,14.08,9.33,4.19-.89,7.09-3.32,8.45-7.46.23-.7.07-.94-.67-.92-1.28.03-2.56.03-3.84,0-.56-.02-.87.18-1.11.68-.73,1.49-1.97,2.38-3.53,2.83-4.75,1.39-8.97-2.65-8.24-7.88.39-2.8,2.45-5.09,5.05-5.6Z"/>
</svg>