<?xml version="1.0" encoding="UTF-8"?>
<svg id="Layer_1" data-name="Layer 1" xmlns="http://www.w3.org/2000/svg" viewBox="0 0 60 60">
  <defs>
    <style>
      .cls-1 {
        fill: #27283a;
        stroke-width: 0px;
      }
    </style>
  </defs>
  <g id="qxH3bK.tif">
    <g>
      <path class="cls-1" d="M59.99,24.98c-.25.75-.11,1.54-.21,2.32-.64,4.87-2.48,9.2-5.7,12.92-3.18,3.67-7.09,6.21-11.77,7.55-2.51.72-5.08,1.03-7.68.88-3.81-.22-7.4-1.28-10.73-3.18-1-.57-1.28-.51-2.09.3-4.09,4.09-8.18,8.18-12.29,12.25-1.21,1.2-2.69,1.87-4.43,1.98-2.2.13-4.74-1.92-5.03-4.12-.28-2.08.44-3.86,1.84-5.32,2.13-2.23,4.34-4.39,6.52-6.57,1.97-1.98,3.95-3.95,5.93-5.93.65-.65.71-.99.25-1.81-1.14-2-2.03-4.1-2.57-6.34-.6-2.51-.84-5.05-.63-7.64.27-3.26,1.12-6.34,2.67-9.2,3.07-5.69,7.65-9.66,13.8-11.74,2.09-.71,4.23-1.15,6.44-1.2.23,0,.47.03.68-.11h1.29c.25.16.53.11.8.11,1.95.05,3.85.44,5.71,1,4.4,1.35,8.13,3.76,11.16,7.23,3.27,3.75,5.16,8.11,5.82,13.04.1.77-.04,1.56.21,2.31v1.29ZM35.59,42.34c9.88.07,18.01-7.91,18.05-17.89.04-10.03-7.92-18.05-17.91-18.11-10.07-.06-18.07,8.07-18.1,17.97-.04,9.89,8.05,18.08,17.96,18.03Z"/>
      <path class="cls-1" d="M21.99,19.99c.03-.59.53-1.4,1-2.19,2.51-4.31,6.25-6.91,11.14-7.79,2.99-.53,5.92-.17,8.73,1.02,1.08.46,1.71,1.61,1.51,2.7-.21,1.15-1.23,2.06-2.42,2.09-.43.01-.84-.15-1.24-.29-4.62-1.62-8.64-.66-12.05,2.84-.81.83-1.38,1.83-1.87,2.88-.43.93-1.13,1.53-2.18,1.62-1.42.13-2.64-1.03-2.64-2.87Z"/>
    </g>
  </g>
</svg>