<?xml version="1.0" encoding="UTF-8"?>
<svg id="Layer_1" data-name="Layer 1" xmlns="http://www.w3.org/2000/svg" viewBox="0 0 60 60">
  <defs>
    <style>
      .cls-1 {
        fill: #739ca9;
        stroke-width: 0px;
      }
    </style>
  </defs>
  <g id="jU1OgI.tif">
    <g>
      <path class="cls-1" d="M30.03,51.98c-5.26,0-10.52.1-15.77-.02-7.74-.18-14.05-6.53-14.19-14.26-.09-5.13-.1-10.26,0-15.38.17-7.92,6.62-14.25,14.54-14.29,10.34-.05,20.67-.05,31.01,0,7.82.04,14.31,6.62,14.35,14.47.02,5.01.03,10.02,0,15.03-.04,7.71-6.31,14.24-14,14.42-5.31.13-10.63.02-15.95.02,0,0,0,0,0,.01ZM31.3,12.8c-6.06,0-11.03-.06-15.99.01-6.3.09-10.31,4.22-10.31,10.49,0,4.48,0,8.96,0,13.44,0,6.14,4.05,10.43,10.17,10.49,9.92.09,19.84.09,29.76,0,6.02-.05,10.1-4.34,10.1-10.35,0-4.89.02-9.78,0-14.67-.02-4.54-3.82-8.79-8.37-9.22-5.48-.51-10.98-.04-15.36-.2Z"/>
      <path class="cls-1" d="M39.05,29.99c-4.99,3.02-9.7,5.86-14.58,8.82v-17.6c4.83,2.91,9.55,5.75,14.58,8.78Z"/>
    </g>
  </g>
</svg>